PathFileType	3	(X/Y/Z)	RCH0000002 BBF 05.c3d
DataRate	CameraRate	NumFrames	NumMarkers	Units	OrigDataRate	OrigDataStartFrame	OrigNumFrames
100.0	100.0	14	23	mm	100.0	159	252
Frame#	Time	T2			T10			MAN			LASI			RASI			LPSI			RPSI			LPAT			LKNE			LANK			LMED			LHEE			LTOE			RPAT			RKNE			RANK			RMED			RHEE			RTOE			RTHI			LTHI			RTIB			LTIB			
		X1	Y1	Z1	X2	Y2	Z2	X3	Y3	Z3	X4	Y4	Z4	X5	Y5	Z5	X6	Y6	Z6	X7	Y7	Z7	X8	Y8	Z8	X9	Y9	Z9	X10	Y10	Z10	X11	Y11	Z11	X12	Y12	Z12	X13	Y13	Z13	X14	Y14	Z14	X15	Y15	Z15	X16	Y16	Z16	X17	Y17	Z17	X18	Y18	Z18	X19	Y19	Z19	X20	Y20	Z20	X21	Y21	Z21	X22	Y22	Z22	X23	Y23	Z23	

159	1.580	-1426.87304	-46.87140	958.43688	-1405.09903	-84.48164	776.57979	-1287.69904	-43.49013	939.29093	-1305.95873	-16.44892	635.77246	-1326.91485	-191.71850	631.00785	-1420.32631	-54.12623	688.83762	-1425.46825	-126.13331	689.90890	-1261.47264	-70.47484	379.66723	-1288.41888	-6.59397	335.02460	-1351.45490	19.10928	70.85190	-1367.60422	-48.26761	88.23425	-1398.44128	-8.92981	102.98264	-1314.38765	-29.22838	66.89853	-1377.06634	-134.66296	329.51493	-1439.09111	-179.34858	318.59259	-1637.80798	-175.90404	133.48167	-1638.22566	-108.32546	150.14640	-1646.19229	-147.18114	189.16969	-1623.72270	-136.34113	90.94305	-1402.35901	-253.16764	421.45894	-1301.86314	68.05984	456.47292	-1523.60122	-243.40415	239.18558	-1294.30798	64.03108	225.76938	
160	1.590	-1416.44276	-49.41098	964.14824	-1394.00069	-85.18525	781.47261	-1277.78405	-44.79153	945.31699	-1295.77027	-13.93253	640.35407	-1312.07865	-189.52709	635.97604	-1408.60140	-54.69047	693.63392	-1412.41637	-126.63090	694.47023	-1259.80986	-67.96301	381.37803	-1288.49111	-4.24424	337.36196	-1352.12777	17.98926	72.57133	-1366.80042	-49.61906	90.16096	-1398.42665	-10.83656	105.00590	-1314.03878	-29.57132	68.10630	-1353.75020	-133.82451	334.31773	-1415.45357	-179.19032	322.24058	-1613.96477	-178.14274	137.13434	-1614.00300	-110.13400	152.29634	-1623.07911	-148.20392	191.86983	-1597.77506	-139.95687	94.59874	-1380.51558	-252.55054	425.99681	-1298.90830	70.25502	459.06404	-1500.49012	-244.15931	244.43763	-1296.83523	65.45348	227.22112	
161	1.600	-1406.02685	-51.88257	969.74230	-1383.02085	-85.86888	786.25917	-1267.87399	-46.07182	951.15867	-1285.72021	-11.45476	644.83876	-1297.37739	-187.33632	640.84502	-1397.01309	-55.27869	698.29755	-1399.48940	-127.14306	698.90432	-1258.06991	-65.48100	383.06003	-1288.49111	-1.96187	339.67867	-1352.76261	16.84244	74.30102	-1365.91345	-50.98531	92.08571	-1398.35442	-12.79607	107.05083	-1313.65501	-29.92092	69.30488	-1330.44473	-133.01435	339.14160	-1391.81302	-179.05165	325.86332	-1589.95887	-180.39768	140.58902	-1589.70340	-111.97908	154.33651	-1599.85511	-149.31628	194.41344	-1571.72445	-143.50166	98.11398	-1358.79072	-251.96342	430.51933	-1295.95531	72.38703	461.62072	-1477.22161	-244.93553	249.50303	-1299.32736	66.82117	228.68111	
162	1.610	-1395.60267	-54.22941	975.09424	-1372.23606	-86.52190	790.82701	-1257.93813	-47.31289	956.62756	-1275.91244	-9.05340	649.12495	-1282.91416	-185.14995	645.50216	-1385.66437	-55.91937	702.68997	-1386.78130	-127.68829	703.07327	-1256.17198	-63.04709	384.67060	-1288.34424	0.20335	341.94300	-1353.32353	15.66344	76.03868	-1364.87700	-52.36088	93.99941	-1398.17304	-14.82850	109.12648	-1313.20696	-30.27054	70.47827	-1307.13115	-132.24474	344.01663	-1368.12193	-178.93900	329.44702	-1565.55148	-182.68114	143.66708	-1565.16395	-113.89165	156.15581	-1576.33400	-150.59493	196.64569	-1545.38111	-146.91196	101.36393	-1337.25187	-251.42261	435.01176	-1292.99571	74.40469	464.10195	-1453.59366	-245.74469	254.22729	-1301.73516	68.09676	230.14607	
163	1.620	-1385.13826	-56.40827	980.09603	-1361.69569	-87.13993	795.07917	-1247.93844	-48.50020	961.56349	-1266.42582	-6.75864	653.12434	-1268.76696	-182.97080	649.84372	-1374.63412	-56.64030	706.68934	-1374.36376	-128.28500	706.85378	-1254.04738	-60.66032	386.16255	-1287.99370	2.22621	344.11805	-1353.77658	14.46938	77.77026	-1363.64604	-53.72050	95.88684	-1397.83960	-16.91781	111.22713	-1312.67240	-30.60164	71.60625	-1283.77710	-131.51832	348.96977	-1344.31505	-178.85406	332.98396	-1540.52493	-185.00344	146.23784	-1540.22046	-115.89575	157.66711	-1552.33818	-152.09637	198.44720	-1518.56089	-150.14424	104.25732	-1315.92600	-250.93429	439.45943	-1290.03861	76.27620	466.46839	-1429.41981	-246.59413	258.49737	-1304.00577	69.26306	231.60457	
164	1.630	-1374.59885	-58.39157	984.65841	-1351.42304	-87.72555	798.93612	-1237.83626	-49.62290	965.84012	-1257.31343	-4.59301	656.76390	-1254.99188	-180.80271	653.77663	-1363.97754	-57.46667	710.19447	-1362.28859	-128.95024	710.14081	-1251.64620	-58.30378	387.48538	-1287.40282	4.10607	346.16193	-1354.09268	13.30064	79.46865	-1362.20278	-55.01864	97.72560	-1397.32419	-19.00944	113.33022	-1312.03890	-30.88394	72.66437	-1260.35427	-130.82737	354.02143	-1320.32860	-178.79236	336.47234	-1514.70770	-187.36997	148.22664	-1514.72694	-118.00466	158.81072	-1527.72037	-153.84991	199.73991	-1491.10767	-153.17668	106.74147	-1294.81016	-250.49328	443.84646	-1287.10838	77.98944	468.68289	-1404.55684	-247.48443	262.25098	-1306.08192	70.32425	233.03518	
165	1.640	-1363.95124	-60.16752	988.71031	-1341.41781	-88.28810	802.33548	-1227.59655	-50.67387	969.36558	-1248.60288	-2.57236	659.98596	-1241.62667	-178.65233	657.21959	-1353.72721	-58.41959	713.12637	-1350.59012	-129.69867	712.84909	-1248.94084	-55.95312	388.58825	-1286.55237	5.86129	348.03009	-1354.25109	12.21546	81.09577	-1360.55813	-56.19462	99.48712	-1396.61292	-21.01801	115.39859	-1311.30512	-31.07895	73.62537	-1236.85218	-130.15498	359.18520	-1296.11615	-178.74254	339.91687	-1487.98404	-189.77922	149.61268	-1488.56452	-120.21879	159.55236	-1502.37314	-155.85526	200.48453	-1462.90289	-156.00723	108.80087	-1273.88460	-250.08372	448.15639	-1284.23431	79.54804	470.71136	-1378.92160	-248.40800	265.47959	-1307.90278	71.30285	234.40679	
166	1.650	-1353.16638	-61.73900	992.19716	-1331.65946	-88.84270	805.23044	-1217.19022	-51.64950	972.08048	-1240.29706	-0.70751	662.74760	-1228.69362	-176.53074	660.10429	-1343.89400	-59.51452	715.42876	-1339.28687	-130.54151	714.91389	-1245.92678	-53.58670	389.42389	-1285.43534	7.52092	349.67892	-1354.24288	11.28048	82.60719	-1358.74924	-57.18149	101.13943	-1395.70969	-22.84164	117.38582	-1310.48087	-31.14552	74.46163	-1213.28851	-129.47712	364.46882	-1271.66140	-178.68591	343.32898	-1460.29266	-192.22135	150.41958	-1461.64399	-122.52520	159.87778	-1476.23014	-158.08404	200.67280	-1433.86675	-158.64833	110.45093	-1253.12683	-249.68127	452.37363	-1281.43648	80.96535	472.52369	-1352.49874	-249.34862	268.22518	-1309.40714	72.23382	235.68098	
167	1.660	-1342.22088	-63.12161	995.07921	-1322.11068	-89.40877	807.58817	-1206.59522	-52.54955	973.95497	-1232.37474	0.99396	665.01975	-1216.20126	-174.45471	662.37709	-1334.46740	-60.75981	717.06825	-1328.38209	-131.48554	716.29160	-1242.62045	-51.19443	389.95283	-1284.05157	9.11623	351.06990	-1354.07334	10.55967	83.95806	-1356.83397	-57.91656	102.65095	-1394.63607	-24.37917	119.24330	-1309.58597	-31.04623	75.14837	-1189.71590	-128.76496	369.87482	-1246.98731	-178.59636	346.72582	-1431.61891	-194.67740	150.70157	-1433.90580	-124.89829	159.78606	-1449.26267	-160.48489	200.31689	-1403.95527	-161.11917	111.72889	-1232.52482	-249.25605	456.48430	-1278.71242	82.25853	474.09465	-1325.34025	-250.28177	270.57080	-1310.53909	73.15753	236.81605	
168	1.670	-1331.09754	-64.34132	997.33007	-1312.72096	-90.00821	809.38830	-1195.79662	-53.37710	974.98545	-1224.79116	2.52612	666.78644	-1204.14487	-172.44719	664.00087	-1325.41555	-62.15541	718.03432	-1317.86334	-132.53222	716.96042	-1239.05455	-48.78284	390.14679	-1282.40336	10.67390	352.17344	-1353.76241	10.10418	85.10936	-1354.88284	-58.35122	103.99464	-1393.42916	-25.54671	120.92762	-1308.64788	-30.75338	75.66672	-1166.22523	-127.98647	375.39943	-1222.16105	-178.44059	350.12712	-1401.98454	-197.11913	150.52796	-1405.32047	-127.30175	159.28301	-1421.47466	-162.99117	199.43843	-1373.15700	-163.43640	112.68312	-1212.08751	-248.77566	460.47549	-1276.02835	83.44418	475.40455	-1297.55762	-251.17539	272.62512	-1311.25479	74.11260	237.77213	
169	1.680	-1319.78534	-65.43197	998.93580	-1303.42993	-90.66331	810.62181	-1184.78608	-54.13860	975.19161	-1217.47887	3.88352	668.04384	-1192.50606	-170.53705	664.95676	-1316.68538	-63.69196	718.33871	-1307.70149	-133.67708	716.92069	-1235.27094	-46.37529	389.99081	-1280.49250	12.21170	352.97176	-1353.34264	9.94474	86.03343	-1352.96957	-58.45841	105.15178	-1392.13700	-26.29016	122.40700	-1307.69832	-30.25330	76.00625	-1142.94502	-127.10687	381.02895	-1197.29442	-178.17857	353.54951	-1371.43871	-199.50933	149.96830	-1375.89124	-129.69122	158.37566	-1392.89871	-165.53016	198.05894	-1341.49186	-165.60494	113.36243	-1191.85083	-248.20775	464.33234	-1273.31736	84.53614	476.43963	-1269.30782	-251.99098	274.50244	-1311.52863	75.12982	238.51650	
170	1.690	-1308.27901	-66.43268	999.89436	-1294.17058	-91.39467	811.29015	-1173.56097	-54.84389	974.61370	-1210.34946	5.06086	668.79913	-1181.25178	-168.75764	665.24497	-1308.20328	-65.35056	718.01394	-1297.84972	-134.90951	716.19458	-1231.31194	-44.00809	389.48380	-1278.31816	13.73683	353.46039	-1352.85454	10.08780	86.71809	-1351.16122	-58.23637	106.11473	-1390.81177	-26.59205	123.66593	-1306.76914	-29.54855	76.16651	-1120.03666	-126.08780	386.73359	-1172.53949	-177.76467	356.99872	-1340.05323	-201.80256	149.08003	-1345.65977	-132.01741	157.06824	-1363.59501	-168.03203	196.19297	-1309.01390	-167.61068	113.80627	-1171.87804	-247.52169	468.03311	-1270.48443	85.54496	477.19230	-1240.77574	-252.68440	276.30051	-1311.35639	76.22768	239.02820	
171	1.700	-1296.57834	-67.38552	1000.21513	-1284.87212	-92.21926	811.40450	-1162.12323	-55.50621	973.30993	-1203.29638	6.05332	669.06900	-1170.33333	-167.14427	664.88448	-1299.87701	-67.10343	717.11050	-1288.24324	-136.21312	714.82468	-1227.21072	-41.72399	388.63724	-1275.87459	15.24613	353.64776	-1352.33990	10.51560	87.16891	-1349.50931	-57.70849	106.88852	-1389.50160	-26.47188	124.70782	-1305.88780	-28.65780	76.15730	-1097.68535	-124.88607	392.45995	-1148.07984	-177.14935	360.46065	-1307.92392	-203.94635	147.89994	-1314.71449	-134.22904	155.35978	-1333.65425	-170.43680	193.84477	-1275.81835	-169.41667	114.03707	-1152.25423	-246.68946	471.54331	-1267.41623	86.47836	477.66090	-1212.15632	-253.20666	278.07975	-1310.75381	77.40991	239.30112	
172	1.710	-1284.68727	-68.33335	999.91838	-1275.46262	-93.14863	810.98482	-1150.47811	-56.14207	971.35387	-1196.19940	6.85773	668.87751	-1159.68591	-165.73063	663.91129	-1291.59902	-68.91544	715.69282	-1278.80002	-137.56660	712.87132	-1222.98216	-39.56542	387.47267	-1273.14780	16.72748	353.55295	-1351.83413	11.18960	87.40964	-1348.04284	-56.91973	107.49078	-1388.24205	-25.98092	125.55537	-1305.07328	-27.61380	75.99766	-1076.08721	-123.45293	398.12358	-1124.11816	-176.28203	363.89281	-1275.17887	-205.88294	146.44016	-1283.20033	-136.27523	153.24323	-1303.20461	-172.69801	191.00854	-1242.05196	-170.96403	114.05517	-1133.07611	-245.68589	474.81022	-1263.99268	87.34165	477.84876	-1183.64049	-253.50482	279.84779	-1309.74967	78.66519	239.34485	
